# xmcd
#
# Track frame offsets: 
#        150
#        20072
#        43277
#        63545
#        79592
#        98042
#        122962
#        138970
#        156875
#        179495
#        195115
#
# Disc length: 2778 seconds
#
# Revision: 0
# Processed by: cddbd v1.5.1PL0 Copyright (c) Steve Scherf et al.
# Submitted via: ExactAudioCopy v0.95a5
#
DISCID=930ad80b
DTITLE=Oscar Klein and Philadelphia Jerry Ricks - Blues Panorama Vol.2
DYEAR=1990
DGENRE=Blues
TTITLE0=Mezzerola
TTITLE1=Blues in Another Country
TTITLE2=Stack o'lee
TTITLE3=Savoy Blues
TTITLE4=23 Skidoo
TTITLE5=Telegraph Blues
TTITLE6=You're No Good
TTITLE7=Blues No. 8
TTITLE8=County Farm
TTITLE9=Rampart St. Blues
TTITLE10=20 to 11
EXTD=
EXTT0=
EXTT1=
EXTT2=
EXTT3=
EXTT4=
EXTT5=
EXTT6=
EXTT7=
EXTT8=
EXTT9=
EXTT10=
PLAYORDER=
